<svg width="2375" height="839" viewBox="0 0 2375 839" fill="none" xmlns="http://www.w3.org/2000/svg">
<path d="M419.501 838.432C187.817 838.432 0 650.839 0 419.432C0 188.025 187.817 0.432129 419.501 0.432129C584.5 0.432129 738 99.5 777 240C777 240 714.5 50 494.5 40.4321C486.334 40.4321 481.776 41.5425 477.463 42.5933C473.59 43.5366 469.914 44.4321 464 44.4321C316 34.9448 260 91.9321 260 91.9321C520 12.7617 632 149.5 644 200.88C591.868 158.548 515.235 125.5 408.5 125.5C237 125.5 124 262.923 124 419.432C124 575.941 262.804 714.932 419.501 714.932C541 714.932 645.236 630.184 696 553.432C696 553.432 713.591 552.048 727.5 539.5C756.46 513.374 766.211 456.8 771.553 425.804C773.777 412.902 775.237 404.432 777 404.432C799 404.432 777 575 742 624.5C776.5 609 820 539.5 820 539.5C790.5 619 763.033 668.623 716.909 714.932C640.934 791.213 535.738 838.432 419.501 838.432Z" fill="#0689C4"/>
<path fill-rule="evenodd" clip-rule="evenodd" d="M893.77 315V43.4849H985.512C1006.81 43.4849 1024.22 47.3296 1037.75 55.019C1051.36 62.6201 1061.43 72.917 1067.97 85.9092C1074.51 98.9019 1077.78 113.396 1077.78 129.394C1077.78 145.392 1074.51 159.931 1067.97 173.012C1061.52 186.092 1051.53 196.521 1038.01 204.299C1024.49 211.989 1007.17 215.833 986.042 215.833H926.649V315H893.77ZM984.982 186.667H926.649V72.6519H984.452C999.212 72.6519 1011.06 75.1265 1019.98 80.0762C1028.91 84.937 1035.36 91.6543 1039.34 100.228C1043.4 108.801 1045.44 118.523 1045.44 129.394C1045.44 140.265 1043.4 150.032 1039.34 158.693C1035.36 167.267 1028.95 174.072 1020.11 179.11C1011.28 184.148 999.565 186.667 984.982 186.667Z" fill="#0689C4"/>
<path d="M1146.66 391.364C1141.35 391.364 1136.63 390.922 1132.47 390.038C1128.32 389.242 1125.45 388.447 1123.85 387.651L1131.81 360.076C1139.41 362.02 1146.13 362.727 1151.96 362.197C1157.79 361.667 1162.96 359.059 1167.47 354.375C1172.07 349.779 1176.27 342.311 1180.07 331.97L1185.9 316.061L1110.6 111.364H1144.54L1200.75 273.636H1202.87L1259.08 111.364H1293.02L1206.58 344.697C1202.69 355.215 1197.88 363.92 1192.13 370.814C1186.39 377.797 1179.71 382.967 1172.11 386.326C1164.6 389.684 1156.11 391.364 1146.66 391.364Z" fill="#0689C4"/>
<path fill-rule="evenodd" clip-rule="evenodd" d="M1403.92 319.242C1386.95 319.242 1371.97 314.956 1358.98 306.383C1345.99 297.721 1335.82 285.524 1328.49 269.792C1321.15 253.971 1317.48 235.278 1317.48 213.712C1317.48 192.323 1321.15 173.763 1328.49 158.03C1335.82 142.298 1346.03 130.146 1359.11 121.572C1372.19 112.999 1387.3 108.712 1404.45 108.712C1417.71 108.712 1428.18 110.922 1435.87 115.341C1443.65 119.672 1449.57 124.622 1453.64 130.189C1457.79 135.669 1461.02 140.177 1463.31 143.712H1465.97V43.4849H1497.25V315H1467.03V283.712H1463.31C1461.02 287.424 1457.75 292.108 1453.5 297.765C1449.26 303.333 1443.21 308.327 1435.34 312.746C1427.48 317.077 1417 319.242 1403.92 319.242ZM1408.16 291.136C1420.71 291.136 1431.32 287.866 1439.98 281.326C1448.64 274.697 1455.23 265.549 1459.74 253.883C1464.24 242.127 1466.5 228.561 1466.5 213.182C1466.5 197.98 1464.29 184.678 1459.87 173.277C1455.45 161.787 1448.91 152.86 1440.25 146.497C1431.58 140.044 1420.89 136.818 1408.16 136.818C1394.91 136.818 1383.86 140.221 1375.02 147.027C1366.27 153.744 1359.68 162.892 1355.27 174.47C1350.93 185.959 1348.77 198.864 1348.77 213.182C1348.77 227.677 1350.98 240.846 1355.4 252.689C1359.91 264.444 1366.53 273.813 1375.28 280.795C1384.12 287.689 1395.08 291.136 1408.16 291.136Z" fill="#0689C4"/>
<path fill-rule="evenodd" clip-rule="evenodd" d="M1618.83 319.773C1605.92 319.773 1594.21 317.342 1583.69 312.481C1573.18 307.532 1564.82 300.417 1558.64 291.136C1552.45 281.768 1549.36 270.455 1549.36 257.197C1549.36 245.53 1551.65 236.073 1556.25 228.826C1560.85 221.49 1566.99 215.745 1574.68 211.591C1582.37 207.437 1590.85 204.344 1600.13 202.311C1609.5 200.189 1618.91 198.51 1628.37 197.273C1640.75 195.682 1650.78 194.489 1658.47 193.693C1666.24 192.81 1671.9 191.351 1675.44 189.318C1679.06 187.286 1680.87 183.75 1680.87 178.712V177.652C1680.87 164.571 1677.29 154.407 1670.13 147.159C1663.06 139.912 1652.32 136.288 1637.92 136.288C1622.98 136.288 1611.27 139.558 1602.78 146.099C1594.3 152.639 1588.33 159.622 1584.89 167.045L1555.19 156.439C1560.49 144.066 1567.56 134.432 1576.4 127.538C1585.33 120.556 1595.05 115.695 1605.57 112.955C1616.17 110.126 1626.6 108.712 1636.86 108.712C1643.4 108.712 1650.91 109.508 1659.39 111.099C1667.97 112.601 1676.23 115.739 1684.19 120.512C1692.23 125.284 1698.9 132.487 1704.2 142.122C1709.51 151.755 1712.16 164.659 1712.16 180.833V315H1680.87V287.424H1679.28C1677.16 291.843 1673.62 296.572 1668.67 301.61C1663.73 306.648 1657.14 310.935 1648.92 314.47C1640.7 318.005 1630.67 319.773 1618.83 319.773ZM1623.6 291.667C1635.97 291.667 1646.4 289.236 1654.89 284.375C1663.46 279.514 1669.91 273.239 1674.24 265.549C1678.66 257.86 1680.87 249.773 1680.87 241.288V212.651C1679.55 214.243 1676.63 215.701 1672.12 217.026C1667.7 218.264 1662.58 219.369 1656.74 220.341C1651 221.225 1645.39 222.021 1639.91 222.728C1634.51 223.346 1630.14 223.876 1626.78 224.318C1618.65 225.379 1611.05 227.103 1603.98 229.489C1597 231.787 1591.34 235.278 1587.01 239.962C1582.77 244.558 1580.64 250.833 1580.64 258.788C1580.64 269.659 1584.67 277.879 1592.71 283.447C1600.84 288.927 1611.14 291.667 1623.6 291.667Z" fill="#0689C4"/>
<path d="M1800.55 192.5V315H1769.27V111.364H1799.49V143.182H1802.15C1806.92 132.841 1814.17 124.533 1823.89 118.258C1833.61 111.894 1846.16 108.712 1861.54 108.712C1875.33 108.712 1887.39 111.541 1897.73 117.197C1908.07 122.765 1916.12 131.25 1921.86 142.652C1927.61 153.965 1930.48 168.283 1930.48 185.606V315H1899.19V187.728C1899.19 171.73 1895.04 159.268 1886.73 150.341C1878.42 141.326 1867.02 136.818 1852.52 136.818C1842.54 136.818 1833.61 138.984 1825.74 143.314C1817.97 147.646 1811.82 153.965 1807.32 162.273C1802.81 170.581 1800.55 180.657 1800.55 192.5Z" fill="#0689C4"/>
<path d="M2076.21 111.364V137.879H2032.73V256.667C2032.73 265.505 2034.01 272.134 2036.57 276.553C2039.22 280.884 2042.58 283.8 2046.65 285.303C2050.8 286.717 2055.18 287.424 2059.77 287.424C2063.22 287.424 2066.05 287.248 2068.26 286.894L2073.56 285.833L2079.92 313.939C2077.8 314.735 2074.84 315.53 2071.04 316.326C2067.24 317.209 2062.42 317.651 2056.59 317.651C2047.75 317.651 2039.09 315.751 2030.61 311.951C2022.21 308.15 2015.23 302.361 2009.66 294.583C2004.18 286.806 2001.44 276.995 2001.44 265.151V137.879H1970.68V111.364H2001.44V62.5762H2032.73V111.364H2076.21Z" fill="#0689C4"/>
<path d="M2123.28 315V111.364H2154.56V315H2123.28Z" fill="#0689C4"/>
<path d="M2139.19 77.4243C2133.09 77.4243 2127.83 75.3477 2123.41 71.1934C2119.08 67.0396 2116.91 62.0459 2116.91 56.2124C2116.91 50.3789 2119.08 45.3853 2123.41 41.2314C2127.83 37.0771 2133.09 35 2139.19 35C2145.28 35 2150.5 37.0771 2154.83 41.2314C2159.25 45.3853 2161.46 50.3789 2161.46 56.2124C2161.46 62.0459 2159.25 67.0396 2154.83 71.1934C2150.5 75.3477 2145.28 77.4243 2139.19 77.4243Z" fill="#0689C4"/>
<path d="M2294.6 319.242C2275.51 319.242 2259.07 314.735 2245.28 305.72C2231.49 296.705 2220.89 284.287 2213.46 268.466C2206.04 252.645 2202.32 234.571 2202.32 214.243C2202.32 193.561 2206.12 175.31 2213.73 159.489C2221.42 143.58 2232.11 131.162 2245.81 122.235C2259.6 113.22 2275.68 108.712 2294.07 108.712C2308.39 108.712 2321.29 111.364 2332.78 116.667C2344.27 121.97 2353.68 129.394 2361.02 138.939C2368.35 148.485 2372.91 159.622 2374.67 172.349H2343.39C2341 163.068 2335.7 154.849 2327.48 147.689C2319.34 140.442 2308.39 136.818 2294.6 136.818C2282.4 136.818 2271.71 140 2262.51 146.364C2253.41 152.639 2246.3 161.521 2241.17 173.012C2236.13 184.413 2233.61 197.803 2233.61 213.182C2233.61 228.914 2236.09 242.614 2241.04 254.28C2246.07 265.947 2253.15 275.006 2262.25 281.458C2271.44 287.91 2282.22 291.136 2294.6 291.136C2302.73 291.136 2310.11 289.722 2316.74 286.894C2323.37 284.066 2328.98 280 2333.57 274.697C2338.17 269.394 2341.44 263.03 2343.39 255.606H2374.67C2372.91 267.626 2368.53 278.453 2361.55 288.087C2354.65 297.633 2345.51 305.233 2334.1 310.89C2322.79 316.458 2309.62 319.242 2294.6 319.242Z" fill="#0689C4"/>
<path fill-rule="evenodd" clip-rule="evenodd" d="M977.387 736.596H893.6V465.081H981.1C1007.44 465.081 1029.98 470.517 1048.71 481.388C1067.45 492.171 1081.81 507.682 1091.8 527.922C1101.79 548.074 1106.78 572.202 1106.78 600.309C1106.78 628.591 1101.74 652.941 1091.67 673.357C1081.59 693.686 1066.92 709.33 1047.65 720.29C1028.39 731.161 1004.96 736.596 977.387 736.596ZM926.479 707.43H975.266C997.716 707.43 1016.32 703.099 1031.08 694.437C1045.84 685.775 1056.84 673.446 1064.09 657.449C1071.34 641.451 1074.96 622.404 1074.96 600.309C1074.96 578.389 1071.38 559.52 1064.22 543.699C1057.07 527.79 1046.37 515.593 1032.14 507.108C1017.91 498.535 1000.19 494.248 978.979 494.248H926.479V707.43Z" fill="#0689C4"/>
<path d="M1286.02 653.339V532.96H1317.31V736.596H1286.02V702.126H1283.9C1279.13 712.467 1271.71 721.262 1261.63 728.509C1251.55 735.668 1238.83 739.248 1223.45 739.248C1210.72 739.248 1199.41 736.463 1189.51 730.896C1179.61 725.239 1171.83 716.754 1166.18 705.441C1160.52 694.04 1157.69 679.677 1157.69 662.354V532.96H1188.98V660.232C1188.98 675.081 1193.13 686.924 1201.44 695.763C1209.84 704.601 1220.53 709.021 1233.52 709.021C1241.3 709.021 1249.21 707.032 1257.25 703.055C1265.39 699.077 1272.19 692.979 1277.67 684.759C1283.24 676.54 1286.02 666.066 1286.02 653.339Z" fill="#0689C4"/>
<path fill-rule="evenodd" clip-rule="evenodd" d="M1434.54 741.369C1421.64 741.369 1409.93 738.938 1399.41 734.077C1388.89 729.128 1380.54 722.013 1374.35 712.732C1368.17 703.364 1365.07 692.051 1365.07 678.793C1365.07 667.126 1367.37 657.669 1371.97 650.422C1376.56 643.086 1382.7 637.341 1390.39 633.187C1398.08 629.033 1406.57 625.94 1415.85 623.907C1425.22 621.786 1434.63 620.106 1444.09 618.869C1456.46 617.278 1466.49 616.085 1474.18 615.29C1481.96 614.406 1487.62 612.947 1491.15 610.915C1494.77 608.882 1496.59 605.346 1496.59 600.309V599.248C1496.59 586.167 1493.01 576.003 1485.85 568.755C1478.78 561.508 1468.04 557.884 1453.63 557.884C1438.7 557.884 1426.98 561.154 1418.5 567.695C1410.01 574.235 1404.05 581.218 1400.6 588.642L1370.91 578.036C1376.21 565.662 1383.28 556.028 1392.12 549.134C1401.04 542.152 1410.77 537.291 1421.28 534.551C1431.89 531.723 1442.32 530.309 1452.57 530.309C1459.11 530.309 1466.62 531.104 1475.11 532.695C1483.68 534.197 1491.95 537.335 1499.9 542.108C1507.94 546.88 1514.62 554.083 1519.92 563.718C1525.22 573.352 1527.87 586.255 1527.87 602.43V736.596H1496.59V709.021H1495C1492.87 713.439 1489.34 718.168 1484.39 723.206C1479.44 728.244 1472.86 732.531 1464.64 736.066C1456.42 739.601 1446.39 741.369 1434.54 741.369ZM1439.31 713.263C1451.69 713.263 1462.12 710.833 1470.6 705.971C1479.18 701.11 1485.63 694.835 1489.96 687.146C1494.38 679.456 1496.59 671.369 1496.59 662.884V634.248C1495.26 635.839 1492.34 637.297 1487.84 638.623C1483.42 639.86 1478.29 640.965 1472.46 641.937C1466.71 642.821 1461.1 643.617 1455.62 644.324C1453.33 644.587 1451.22 644.834 1449.29 645.065C1447.54 645.275 1445.94 645.473 1444.49 645.657C1443.79 645.746 1443.13 645.832 1442.5 645.915C1434.36 646.975 1426.76 648.699 1419.69 651.085C1412.71 653.383 1407.05 656.874 1402.72 661.559C1398.48 666.154 1396.36 672.43 1396.36 680.384C1396.36 691.255 1400.38 699.475 1408.42 705.043C1416.56 710.523 1426.85 713.263 1439.31 713.263Z" fill="#0689C4"/>
<path d="M1616.27 465.081V736.596H1584.98V465.081H1616.27Z" fill="#0689C4"/>
<path d="M1673.58 736.596V532.96H1704.86V736.596H1673.58Z" fill="#0689C4"/>
<path d="M1689.48 499.021C1683.39 499.021 1678.13 496.944 1673.71 492.79C1669.38 488.636 1667.21 483.642 1667.21 477.809C1667.21 471.975 1669.38 466.981 1673.71 462.828C1678.13 458.673 1683.39 456.597 1689.48 456.597C1695.58 456.597 1700.8 458.673 1705.13 462.828C1709.55 466.981 1711.76 471.975 1711.76 477.809C1711.76 483.642 1709.55 488.636 1705.13 492.79C1700.8 496.944 1695.58 499.021 1689.48 499.021Z" fill="#0689C4"/>
<path d="M1850.73 532.96V559.475H1807.24V678.263C1807.24 687.101 1808.53 693.73 1811.09 698.149C1813.74 702.48 1817.1 705.396 1821.17 706.899C1825.32 708.313 1829.69 709.021 1834.29 709.021C1837.74 709.021 1840.57 708.844 1842.78 708.49L1848.08 707.43L1854.44 735.536C1852.32 736.331 1849.36 737.126 1845.56 737.922C1841.76 738.806 1836.94 739.248 1831.11 739.248C1822.27 739.248 1813.61 737.348 1805.12 733.547C1796.73 729.747 1789.74 723.958 1784.18 716.18C1778.7 708.402 1775.96 698.591 1775.96 686.748V559.475H1745.2V532.96H1775.96V484.172H1807.24V532.96H1850.73Z" fill="#0689C4"/>
<path d="M1917.95 812.96C1912.64 812.96 1907.91 812.518 1903.76 811.634C1899.61 810.838 1896.73 810.043 1895.14 809.248L1903.1 781.672C1910.7 783.616 1917.42 784.323 1923.25 783.793C1929.08 783.263 1934.25 780.655 1938.76 775.971C1943.36 771.375 1947.55 763.907 1951.35 753.566L1957.19 737.657L1881.88 532.96H1915.82L1972.04 695.232H1974.16L2030.37 532.96H2064.31L1977.87 766.293C1973.98 776.811 1969.16 785.517 1963.42 792.411C1957.67 799.393 1951 804.563 1943.4 807.922C1935.89 811.28 1927.4 812.96 1917.95 812.96Z" fill="#0689C4"/>
</svg>
