<?xml version="1.0" encoding="UTF-8" standalone="no"?>
<svg
   width="822"
   height="839"
   viewBox="0 0 822 839"
   fill="none"
   version="1.1"
   id="svg38"
   sodipodi:docname="logo_with_text.svg"
   inkscape:version="1.2.2 (b0a8486541, 2022-12-01)"
   xmlns:inkscape="http://www.inkscape.org/namespaces/inkscape"
   xmlns:sodipodi="http://sodipodi.sourceforge.net/DTD/sodipodi-0.dtd"
   xmlns="http://www.w3.org/2000/svg"
   xmlns:svg="http://www.w3.org/2000/svg">
  <defs
     id="defs42" />
  <sodipodi:namedview
     id="namedview40"
     pagecolor="#ffffff"
     bordercolor="#000000"
     borderopacity="0.25"
     inkscape:showpageshadow="2"
     inkscape:pageopacity="0.0"
     inkscape:pagecheckerboard="0"
     inkscape:deskcolor="#d1d1d1"
     showgrid="false"
     inkscape:zoom="0.76884211"
     inkscape:cx="301.75246"
     inkscape:cy="420.7626"
     inkscape:window-width="2560"
     inkscape:window-height="1357"
     inkscape:window-x="0"
     inkscape:window-y="0"
     inkscape:window-maximized="1"
     inkscape:current-layer="svg38" />
  <path
     d="M 419.501,838.432 C 187.817,838.432 0,650.839 0,419.432 0,188.025 187.817,0.432129 419.501,0.432129 584.5,0.432129 738,99.5 777,240 777,240 714.5,50 494.5,40.4321 c -8.166,0 -12.724,1.1104 -17.037,2.1612 -3.873,0.9433 -7.549,1.8388 -13.463,1.8388 -148,-9.4873 -204,47.5 -204,47.5 C 520,12.7617 632,149.5 644,200.88 591.868,158.548 515.235,125.5 408.5,125.5 237,125.5 124,262.923 124,419.432 c 0,156.509 138.804,295.5 295.501,295.5 121.499,0 225.735,-84.748 276.499,-161.5 0,0 17.591,-1.384 31.5,-13.932 28.96,-26.126 38.711,-82.7 44.053,-113.696 2.224,-12.902 3.684,-21.372 5.447,-21.372 22,0 0,170.568 -35,220.068 34.5,-15.5 78,-85 78,-85 -29.5,79.5 -56.967,129.123 -103.091,175.432 -75.975,76.281 -181.171,123.5 -297.408,123.5 z"
     fill="#0689c4"
     id="path2" />
  <path
     fill-rule="evenodd"
     clip-rule="evenodd"
     d="M 893.77,315 V 43.4849 h 91.742 c 21.298,0 38.708,3.8447 52.238,11.5341 13.61,7.6011 23.68,17.898 30.22,30.8902 6.54,12.9927 9.81,27.4868 9.81,43.4848 0,15.998 -3.27,30.537 -9.81,43.618 -6.45,13.08 -16.44,23.509 -29.96,31.287 -13.52,7.69 -30.84,11.534 -51.968,11.534 H 926.649 V 315 Z M 984.982,186.667 H 926.649 V 72.6519 h 57.803 c 14.76,0 26.608,2.4746 35.528,7.4243 8.93,4.8608 15.38,11.5781 19.36,20.1518 4.06,8.573 6.1,18.295 6.1,29.166 0,10.871 -2.04,20.638 -6.1,29.299 -3.98,8.574 -10.39,15.379 -19.23,20.417 -8.83,5.038 -20.545,7.557 -35.128,7.557 z"
     fill="#0689c4"
     id="path4" />
  <path
     d="m 1146.66,391.364 c -5.31,0 -10.03,-0.442 -14.19,-1.326 -4.15,-0.796 -7.02,-1.591 -8.62,-2.387 l 7.96,-27.575 c 7.6,1.944 14.32,2.651 20.15,2.121 5.83,-0.53 11,-3.138 15.51,-7.822 4.6,-4.596 8.8,-12.064 12.6,-22.405 l 5.83,-15.909 -75.3,-204.697 h 33.94 l 56.21,162.272 h 2.12 l 56.21,-162.272 h 33.94 l -86.44,233.333 c -3.89,10.518 -8.7,19.223 -14.45,26.117 -5.74,6.983 -12.42,12.153 -20.02,15.512 -7.51,3.358 -16,5.038 -25.45,5.038 z"
     fill="#0689c4"
     id="path6" />
  <path
     fill-rule="evenodd"
     clip-rule="evenodd"
     d="m 1403.92,319.242 c -16.97,0 -31.95,-4.286 -44.94,-12.859 -12.99,-8.662 -23.16,-20.859 -30.49,-36.591 -7.34,-15.821 -11.01,-34.514 -11.01,-56.08 0,-21.389 3.67,-39.949 11.01,-55.682 7.33,-15.732 17.54,-27.884 30.62,-36.458 13.08,-8.573 28.19,-12.86 45.34,-12.86 13.26,0 23.73,2.21 31.42,6.629 7.78,4.331 13.7,9.281 17.77,14.848 4.15,5.48 7.38,9.988 9.67,13.523 h 2.66 V 43.4849 h 31.28 V 315 h -30.22 v -31.288 h -3.72 c -2.29,3.712 -5.56,8.396 -9.81,14.053 -4.24,5.568 -10.29,10.562 -18.16,14.981 -7.86,4.331 -18.34,6.496 -31.42,6.496 z m 4.24,-28.106 c 12.55,0 23.16,-3.27 31.82,-9.81 8.66,-6.629 15.25,-15.777 19.76,-27.443 4.5,-11.756 6.76,-25.322 6.76,-40.701 0,-15.202 -2.21,-28.504 -6.63,-39.905 -4.42,-11.49 -10.96,-20.417 -19.62,-26.78 -8.67,-6.453 -19.36,-9.679 -32.09,-9.679 -13.25,0 -24.3,3.403 -33.14,10.209 -8.75,6.717 -15.34,15.865 -19.75,27.443 -4.34,11.489 -6.5,24.394 -6.5,38.712 0,14.495 2.21,27.664 6.63,39.507 4.51,11.755 11.13,21.124 19.88,28.106 8.84,6.894 19.8,10.341 32.88,10.341 z"
     fill="#0689c4"
     id="path8" />
  <path
     fill-rule="evenodd"
     clip-rule="evenodd"
     d="m 1618.83,319.773 c -12.91,0 -24.62,-2.431 -35.14,-7.292 -10.51,-4.949 -18.87,-12.064 -25.05,-21.345 -6.19,-9.368 -9.28,-20.681 -9.28,-33.939 0,-11.667 2.29,-21.124 6.89,-28.371 4.6,-7.336 10.74,-13.081 18.43,-17.235 7.69,-4.154 16.17,-7.247 25.45,-9.28 9.37,-2.122 18.78,-3.801 28.24,-5.038 12.38,-1.591 22.41,-2.784 30.1,-3.58 7.77,-0.883 13.43,-2.342 16.97,-4.375 3.62,-2.032 5.43,-5.568 5.43,-10.606 v -1.06 c 0,-13.081 -3.58,-23.245 -10.74,-30.493 -7.07,-7.247 -17.81,-10.871 -32.21,-10.871 -14.94,0 -26.65,3.27 -35.14,9.811 -8.48,6.54 -14.45,13.523 -17.89,20.946 l -29.7,-10.606 c 5.3,-12.373 12.37,-22.007 21.21,-28.901 8.93,-6.982 18.65,-11.843 29.17,-14.583 10.6,-2.829 21.03,-4.243 31.29,-4.243 6.54,0 14.05,0.796 22.53,2.387 8.58,1.502 16.84,4.64 24.8,9.413 8.04,4.772 14.71,11.975 20.01,21.61 5.31,9.633 7.96,22.537 7.96,38.711 V 315 h -31.29 v -27.576 h -1.59 c -2.12,4.419 -5.66,9.148 -10.61,14.186 -4.94,5.038 -11.53,9.325 -19.75,12.86 -8.22,3.535 -18.25,5.303 -30.09,5.303 z m 4.77,-28.106 c 12.37,0 22.8,-2.431 31.29,-7.292 8.57,-4.861 15.02,-11.136 19.35,-18.826 4.42,-7.689 6.63,-15.776 6.63,-24.261 v -28.637 c -1.32,1.592 -4.24,3.05 -8.75,4.375 -4.42,1.238 -9.54,2.343 -15.38,3.315 -5.74,0.884 -11.35,1.68 -16.83,2.387 -5.4,0.618 -9.77,1.148 -13.13,1.59 -8.13,1.061 -15.73,2.785 -22.8,5.171 -6.98,2.298 -12.64,5.789 -16.97,10.473 -4.24,4.596 -6.37,10.871 -6.37,18.826 0,10.871 4.03,19.091 12.07,24.659 8.13,5.48 18.43,8.22 30.89,8.22 z"
     fill="#0689c4"
     id="path10" />
  <path
     d="M 1800.55,192.5 V 315 h -31.28 V 111.364 h 30.22 v 31.818 h 2.66 c 4.77,-10.341 12.02,-18.649 21.74,-24.924 9.72,-6.364 22.27,-9.546 37.65,-9.546 13.79,0 25.85,2.829 36.19,8.485 10.34,5.568 18.39,14.053 24.13,25.455 5.75,11.313 8.62,25.631 8.62,42.954 V 315 h -31.29 V 187.728 c 0,-15.998 -4.15,-28.46 -12.46,-37.387 -8.31,-9.015 -19.71,-13.523 -34.21,-13.523 -9.98,0 -18.91,2.166 -26.78,6.496 -7.77,4.332 -13.92,10.651 -18.42,18.959 -4.51,8.308 -6.77,18.384 -6.77,30.227 z"
     fill="#0689c4"
     id="path12" />
  <path
     d="m 2076.21,111.364 v 26.515 h -43.48 v 118.788 c 0,8.838 1.28,15.467 3.84,19.886 2.65,4.331 6.01,7.247 10.08,8.75 4.15,1.414 8.53,2.121 13.12,2.121 3.45,0 6.28,-0.176 8.49,-0.53 l 5.3,-1.061 6.36,28.106 c -2.12,0.796 -5.08,1.591 -8.88,2.387 -3.8,0.883 -8.62,1.325 -14.45,1.325 -8.84,0 -17.5,-1.9 -25.98,-5.7 -8.4,-3.801 -15.38,-9.59 -20.95,-17.368 -5.48,-7.777 -8.22,-17.588 -8.22,-29.432 V 137.879 h -30.76 v -26.515 h 30.76 V 62.5762 h 31.29 v 48.7878 z"
     fill="#0689c4"
     id="path14" />
  <path
     d="M 2123.28,315 V 111.364 h 31.28 V 315 Z"
     fill="#0689c4"
     id="path16" />
  <path
     d="m 2139.19,77.4243 c -6.1,0 -11.36,-2.0766 -15.78,-6.2309 -4.33,-4.1538 -6.5,-9.1475 -6.5,-14.981 0,-5.8335 2.17,-10.8271 6.5,-14.981 4.42,-4.1543 9.68,-6.2314 15.78,-6.2314 6.09,0 11.31,2.0771 15.64,6.2314 4.42,4.1539 6.63,9.1475 6.63,14.981 0,5.8335 -2.21,10.8272 -6.63,14.981 -4.33,4.1543 -9.55,6.2309 -15.64,6.2309 z"
     fill="#0689c4"
     id="path18" />
  <path
     d="m 2294.6,319.242 c -19.09,0 -35.53,-4.507 -49.32,-13.522 -13.79,-9.015 -24.39,-21.433 -31.82,-37.254 -7.42,-15.821 -11.14,-33.895 -11.14,-54.223 0,-20.682 3.8,-38.933 11.41,-54.754 7.69,-15.909 18.38,-28.327 32.08,-37.254 13.79,-9.015 29.87,-13.523 48.26,-13.523 14.32,0 27.22,2.652 38.71,7.955 11.49,5.303 20.9,12.727 28.24,22.272 7.33,9.546 11.89,20.683 13.65,33.41 h -31.28 c -2.39,-9.281 -7.69,-17.5 -15.91,-24.66 -8.14,-7.247 -19.09,-10.871 -32.88,-10.871 -12.2,0 -22.89,3.182 -32.09,9.546 -9.1,6.275 -16.21,15.157 -21.34,26.648 -5.04,11.401 -7.56,24.791 -7.56,40.17 0,15.732 2.48,29.432 7.43,41.098 5.03,11.667 12.11,20.726 21.21,27.178 9.19,6.452 19.97,9.678 32.35,9.678 8.13,0 15.51,-1.414 22.14,-4.242 6.63,-2.828 12.24,-6.894 16.83,-12.197 4.6,-5.303 7.87,-11.667 9.82,-19.091 h 31.28 c -1.76,12.02 -6.14,22.847 -13.12,32.481 -6.9,9.546 -16.04,17.146 -27.45,22.803 -11.31,5.568 -24.48,8.352 -39.5,8.352 z"
     fill="#0689c4"
     id="path20" />
  <path
     fill-rule="evenodd"
     clip-rule="evenodd"
     d="M 977.387,736.596 H 893.6 V 465.081 h 87.5 c 26.34,0 48.88,5.436 67.61,16.307 18.74,10.783 33.1,26.294 43.09,46.534 9.99,20.152 14.98,44.28 14.98,72.387 0,28.282 -5.04,52.632 -15.11,73.048 -10.08,20.329 -24.75,35.973 -44.02,46.933 -19.26,10.871 -42.69,16.306 -70.263,16.306 z M 926.479,707.43 h 48.787 c 22.45,0 41.054,-4.331 55.814,-12.993 14.76,-8.662 25.76,-20.991 33.01,-36.988 7.25,-15.998 10.87,-35.045 10.87,-57.14 0,-21.92 -3.58,-40.789 -10.74,-56.61 -7.15,-15.909 -17.85,-28.106 -32.08,-36.591 -14.23,-8.573 -31.95,-12.86 -53.161,-12.86 h -52.5 z"
     fill="#0689c4"
     id="path22" />
  <path
     d="M 1286.02,653.339 V 532.96 h 31.29 v 203.636 h -31.29 v -34.47 h -2.12 c -4.77,10.341 -12.19,19.136 -22.27,26.383 -10.08,7.159 -22.8,10.739 -38.18,10.739 -12.73,0 -24.04,-2.785 -33.94,-8.352 -9.9,-5.657 -17.68,-14.142 -23.33,-25.455 -5.66,-11.401 -8.49,-25.764 -8.49,-43.087 V 532.96 h 31.29 v 127.272 c 0,14.849 4.15,26.692 12.46,35.531 8.4,8.838 19.09,13.258 32.08,13.258 7.78,0 15.69,-1.989 23.73,-5.966 8.14,-3.978 14.94,-10.076 20.42,-18.296 5.57,-8.219 8.35,-18.693 8.35,-31.42 z"
     fill="#0689c4"
     id="path24" />
  <path
     fill-rule="evenodd"
     clip-rule="evenodd"
     d="m 1434.54,741.369 c -12.9,0 -24.61,-2.431 -35.13,-7.292 -10.52,-4.949 -18.87,-12.064 -25.06,-21.345 -6.18,-9.368 -9.28,-20.681 -9.28,-33.939 0,-11.667 2.3,-21.124 6.9,-28.371 4.59,-7.336 10.73,-13.081 18.42,-17.235 7.69,-4.154 16.18,-7.247 25.46,-9.28 9.37,-2.121 18.78,-3.801 28.24,-5.038 12.37,-1.591 22.4,-2.784 30.09,-3.579 7.78,-0.884 13.44,-2.343 16.97,-4.375 3.62,-2.033 5.44,-5.569 5.44,-10.606 v -1.061 c 0,-13.081 -3.58,-23.245 -10.74,-30.493 -7.07,-7.247 -17.81,-10.871 -32.22,-10.871 -14.93,0 -26.65,3.27 -35.13,9.811 -8.49,6.54 -14.45,13.523 -17.9,20.947 l -29.69,-10.606 c 5.3,-12.374 12.37,-22.008 21.21,-28.902 8.92,-6.982 18.65,-11.843 29.16,-14.583 10.61,-2.828 21.04,-4.242 31.29,-4.242 6.54,0 14.05,0.795 22.54,2.386 8.57,1.502 16.84,4.64 24.79,9.413 8.04,4.772 14.72,11.975 20.02,21.61 5.3,9.634 7.95,22.537 7.95,38.712 v 134.166 h -31.28 V 709.021 H 1495 c -2.13,4.418 -5.66,9.147 -10.61,14.185 -4.95,5.038 -11.53,9.325 -19.75,12.86 -8.22,3.535 -18.25,5.303 -30.1,5.303 z m 4.77,-28.106 c 12.38,0 22.81,-2.43 31.29,-7.292 8.58,-4.861 15.03,-11.136 19.36,-18.825 4.42,-7.69 6.63,-15.777 6.63,-24.262 v -28.636 c -1.33,1.591 -4.25,3.049 -8.75,4.375 -4.42,1.237 -9.55,2.342 -15.38,3.314 -5.75,0.884 -11.36,1.68 -16.84,2.387 -2.29,0.263 -4.4,0.51 -6.33,0.741 -1.75,0.21 -3.35,0.408 -4.8,0.592 -0.7,0.089 -1.36,0.175 -1.99,0.258 -8.14,1.06 -15.74,2.784 -22.81,5.17 -6.98,2.298 -12.64,5.789 -16.97,10.474 -4.24,4.595 -6.36,10.871 -6.36,18.825 0,10.871 4.02,19.091 12.06,24.659 8.14,5.48 18.43,8.22 30.89,8.22 z"
     fill="#0689c4"
     id="path26" />
  <path
     d="m 1616.27,465.081 v 271.515 h -31.29 V 465.081 Z"
     fill="#0689c4"
     id="path28" />
  <path
     d="M 1673.58,736.596 V 532.96 h 31.28 v 203.636 z"
     fill="#0689c4"
     id="path30" />
  <path
     d="m 1689.48,499.021 c -6.09,0 -11.35,-2.077 -15.77,-6.231 -4.33,-4.154 -6.5,-9.148 -6.5,-14.981 0,-5.834 2.17,-10.828 6.5,-14.981 4.42,-4.155 9.68,-6.231 15.77,-6.231 6.1,0 11.32,2.076 15.65,6.231 4.42,4.153 6.63,9.147 6.63,14.981 0,5.833 -2.21,10.827 -6.63,14.981 -4.33,4.154 -9.55,6.231 -15.65,6.231 z"
     fill="#0689c4"
     id="path32" />
  <path
     d="m 1850.73,532.96 v 26.515 h -43.49 v 118.788 c 0,8.838 1.29,15.467 3.85,19.886 2.65,4.331 6.01,7.247 10.08,8.75 4.15,1.414 8.52,2.122 13.12,2.122 3.45,0 6.28,-0.177 8.49,-0.531 l 5.3,-1.06 6.36,28.106 c -2.12,0.795 -5.08,1.59 -8.88,2.386 -3.8,0.884 -8.62,1.326 -14.45,1.326 -8.84,0 -17.5,-1.9 -25.99,-5.701 -8.39,-3.8 -15.38,-9.589 -20.94,-17.367 -5.48,-7.778 -8.22,-17.589 -8.22,-29.432 V 559.475 H 1745.2 V 532.96 h 30.76 v -48.788 h 31.28 v 48.788 z"
     fill="#0689c4"
     id="path34" />
  <path
     d="m 1917.95,812.96 c -5.31,0 -10.04,-0.442 -14.19,-1.326 -4.15,-0.796 -7.03,-1.591 -8.62,-2.386 l 7.96,-27.576 c 7.6,1.944 14.32,2.651 20.15,2.121 5.83,-0.53 11,-3.138 15.51,-7.822 4.6,-4.596 8.79,-12.064 12.59,-22.405 l 5.84,-15.909 -75.31,-204.697 h 33.94 l 56.22,162.272 h 2.12 l 56.21,-162.272 h 33.94 l -86.44,233.333 c -3.89,10.518 -8.71,19.224 -14.45,26.118 -5.75,6.982 -12.42,12.152 -20.02,15.511 -7.51,3.358 -16,5.038 -25.45,5.038 z"
     fill="#0689c4"
     id="path36" />
</svg>
